<svg width="550" height="550" viewBox="0 0 550 550" fill="none" xmlns="http://www.w3.org/2000/svg">
<circle cx="275" cy="275" r="275" fill="#1AB7EA"/>
<path fill-rule="evenodd" clip-rule="evenodd" d="M379.285 120H387.986C406.654 120 420.471 124.482 429.436 133.447C438.4 142.307 442.883 155.965 442.883 174.422V219.035C442.883 231.691 445.414 240.445 450.477 245.297C455.539 250.254 464.609 252.732 477.688 252.732V282.791C464.609 282.791 455.539 285.217 450.477 290.068C445.414 295.025 442.883 303.832 442.883 316.488V360.785C442.883 379.242 438.4 392.9 429.436 401.76C420.471 410.725 406.654 415.207 387.986 415.207H379.285V392.9H385.613C396.793 392.9 404.809 390.105 409.66 384.516C414.512 379.031 416.938 369.961 416.938 357.305V306.68C416.938 295.289 419.838 286.535 425.639 280.418C431.334 274.406 439.982 270.82 451.584 269.66V265.863C439.982 264.703 431.334 261.064 425.639 254.947C419.838 248.936 416.938 240.234 416.938 228.844V177.902C416.938 165.246 414.512 156.176 409.66 150.691C404.809 145.102 396.793 142.307 385.613 142.307H379.285V120ZM170.402 415.414H161.701C143.033 415.414 129.217 410.932 120.252 401.967C111.287 393.107 106.805 379.449 106.805 360.992V316.379C106.805 303.723 104.273 294.969 99.2109 290.117C94.1484 285.16 85.0781 282.682 72 282.682V252.623C85.0781 252.623 94.1484 250.197 99.2109 245.346C104.273 240.389 106.805 231.582 106.805 218.926V174.629C106.805 156.172 111.287 142.514 120.252 133.654C129.217 124.689 143.033 120.207 161.701 120.207H170.402V142.514H164.074C152.895 142.514 144.879 145.309 140.027 150.898C135.176 156.383 132.75 165.453 132.75 178.109V228.734C132.75 240.125 129.85 248.879 124.049 254.996C118.354 261.008 109.705 264.594 98.1035 265.754V269.551C109.705 270.711 118.354 274.35 124.049 280.467C129.85 286.479 132.75 295.18 132.75 306.57V357.512C132.75 370.168 135.176 379.238 140.027 384.723C144.879 390.312 152.895 393.107 164.074 393.107H170.402V415.414Z" fill="white"/>
<path d="M380.354 226.099C379.417 246.581 365.108 274.628 337.432 310.225C308.819 347.409 284.61 366 264.806 366C252.543 366 242.157 354.682 233.68 332.032C228.015 311.274 222.355 290.516 216.691 269.757C210.394 247.121 203.64 235.788 196.418 235.788C194.844 235.788 189.336 239.102 179.902 245.699L170 232.946C180.387 223.821 190.632 214.698 200.714 205.562C214.566 193.594 224.965 187.3 231.896 186.664C248.276 185.091 258.357 196.285 262.141 220.246C266.228 246.098 269.059 262.179 270.649 268.472C275.371 289.921 280.564 300.632 286.24 300.632C290.645 300.632 297.261 293.675 306.083 279.764C314.896 265.85 319.617 255.262 320.254 247.991C321.51 235.983 316.788 229.964 306.083 229.964C301.045 229.964 295.85 231.122 290.507 233.414C300.849 199.542 320.612 183.09 349.78 184.029C371.405 184.665 381.599 198.685 380.354 226.099" fill="white"/>
</svg>
